<?xml version="1.0" encoding="UTF-8"?>
<svg xmlns="http://www.w3.org/2000/svg" xmlns:xlink="http://www.w3.org/1999/xlink" width="79.978pt" height="116.43pt" viewBox="0 0 79.978 116.43">
<defs>
<g>
<g id="glyph-0-0">
<path d="M 6.84375 -0.265625 C 6.84375 -0.3125 6.84375 -0.34375 6.796875 -0.46875 L 4.703125 -6.453125 C 4.546875 -6.890625 4.265625 -6.890625 4.0625 -6.890625 L 3.1875 -6.890625 C 3 -6.890625 2.703125 -6.890625 2.5625 -6.453125 L 0.46875 -0.46875 C 0.421875 -0.34375 0.421875 -0.3125 0.421875 -0.265625 C 0.421875 0 0.671875 0 0.796875 0 L 1.15625 0 C 1.34375 0 1.640625 0 1.78125 -0.390625 L 2.171875 -1.5 L 4.921875 -1.5 L 5.265625 -0.546875 C 5.375 -0.203125 5.453125 0 5.921875 0 L 6.453125 0 C 6.59375 0 6.84375 0 6.84375 -0.265625 Z M 4.625 -2.34375 L 2.46875 -2.34375 L 3.1875 -4.453125 C 3.328125 -4.890625 3.46875 -5.265625 3.546875 -5.625 C 3.609375 -5.390625 3.609375 -5.375 3.6875 -5.140625 Z M 4.625 -2.34375 "/>
</g>
<g id="glyph-0-1">
<path d="M 5.1875 -2.296875 C 5.1875 -2.78125 5.1875 -4.65625 3.390625 -4.65625 C 2.8125 -4.65625 2.28125 -4.421875 1.921875 -4.078125 C 1.921875 -4.4375 1.78125 -4.546875 1.453125 -4.546875 L 1.078125 -4.546875 C 0.71875 -4.546875 0.609375 -4.4375 0.609375 -4.0625 L 0.609375 1.453125 C 0.609375 1.8125 0.71875 1.921875 1.078125 1.921875 L 1.484375 1.921875 C 1.859375 1.921875 1.953125 1.796875 1.953125 1.453125 L 1.953125 -0.390625 C 2.40625 0.109375 2.953125 0.109375 3.078125 0.109375 C 5.1875 0.109375 5.1875 -1.796875 5.1875 -2.296875 Z M 3.84375 -2.265625 C 3.84375 -1.875 3.84375 -0.609375 2.71875 -0.609375 C 2.484375 -0.609375 2.3125 -0.6875 2.1875 -0.78125 C 1.953125 -0.9375 1.953125 -0.984375 1.953125 -1.171875 L 1.953125 -3.546875 C 2.0625 -3.65625 2.390625 -3.875 2.8125 -3.875 C 3.828125 -3.875 3.84375 -2.703125 3.84375 -2.265625 Z M 3.84375 -2.265625 "/>
</g>
<g id="glyph-0-2">
<path d="M 1.921875 -0.46875 L 1.921875 -6.40625 C 1.921875 -6.734375 1.859375 -6.890625 1.453125 -6.890625 L 1.078125 -6.890625 C 0.71875 -6.890625 0.609375 -6.78125 0.609375 -6.40625 L 0.609375 -0.46875 C 0.609375 -0.125 0.71875 0 1.078125 0 L 1.453125 0 C 1.828125 0 1.921875 -0.125 1.921875 -0.46875 Z M 1.921875 -0.46875 "/>
</g>
<g id="glyph-0-3">
<path d="M 1.921875 -0.46875 L 1.921875 -4.0625 C 1.921875 -4.390625 1.859375 -4.546875 1.453125 -4.546875 L 1.078125 -4.546875 C 0.71875 -4.546875 0.609375 -4.4375 0.609375 -4.0625 L 0.609375 -0.46875 C 0.609375 -0.125 0.71875 0 1.078125 0 L 1.453125 0 C 1.828125 0 1.921875 -0.125 1.921875 -0.46875 Z M 2 -6.015625 L 2 -6.203125 C 2 -6.515625 1.921875 -6.671875 1.515625 -6.671875 L 1.015625 -6.671875 C 0.640625 -6.671875 0.53125 -6.546875 0.53125 -6.203125 L 0.53125 -6.015625 C 0.53125 -5.71875 0.578125 -5.53125 1.015625 -5.53125 L 1.515625 -5.53125 C 1.9375 -5.53125 2 -5.71875 2 -6.015625 Z M 2 -6.015625 "/>
</g>
<g id="glyph-0-4">
<path d="M 4.53125 -0.5 C 4.53125 -0.609375 4.5 -1.0625 4.46875 -1.1875 C 4.46875 -1.21875 4.453125 -1.3125 4.359375 -1.3125 C 4.3125 -1.3125 4.296875 -1.3125 4.203125 -1.21875 C 4.03125 -1.078125 3.5625 -0.671875 2.75 -0.671875 C 1.71875 -0.671875 1.71875 -1.671875 1.71875 -2.296875 C 1.71875 -3.109375 1.765625 -3.9375 2.78125 -3.9375 C 3.421875 -3.9375 3.6875 -3.78125 4.046875 -3.484375 C 4.171875 -3.375 4.1875 -3.375 4.234375 -3.375 C 4.328125 -3.375 4.34375 -3.46875 4.359375 -3.5 C 4.375 -3.578125 4.46875 -4.140625 4.46875 -4.1875 C 4.46875 -4.28125 4.40625 -4.3125 4.234375 -4.390625 C 3.765625 -4.609375 3.46875 -4.71875 2.765625 -4.71875 C 1.296875 -4.71875 0.359375 -4.015625 0.359375 -2.28125 C 0.359375 -0.640625 1.21875 0.109375 2.71875 0.109375 C 2.984375 0.109375 3.578125 0.09375 4.25 -0.234375 C 4.53125 -0.390625 4.53125 -0.390625 4.53125 -0.5 Z M 4.53125 -0.5 "/>
</g>
<g id="glyph-0-5">
<path d="M 4.703125 -0.46875 L 4.703125 -3.140625 C 4.703125 -4.703125 3.1875 -4.71875 2.703125 -4.71875 C 2.234375 -4.71875 1.734375 -4.671875 1.078125 -4.390625 C 0.859375 -4.3125 0.8125 -4.28125 0.8125 -4.171875 C 0.8125 -4.09375 0.875 -3.515625 0.890625 -3.4375 C 0.890625 -3.390625 0.9375 -3.328125 1.015625 -3.328125 C 1.0625 -3.328125 1.09375 -3.359375 1.125 -3.390625 C 1.546875 -3.84375 2.046875 -4.0625 2.65625 -4.0625 C 3.1875 -4.0625 3.359375 -3.734375 3.359375 -3.140625 L 3.359375 -2.796875 C 3 -2.796875 0.40625 -2.78125 0.40625 -1.3125 C 0.40625 -0.625 0.96875 0.109375 1.828125 0.109375 C 2.171875 0.109375 2.921875 0.015625 3.390625 -0.671875 L 3.390625 -0.46875 C 3.390625 -0.15625 3.453125 0 3.859375 0 L 4.234375 0 C 4.609375 0 4.703125 -0.125 4.703125 -0.46875 Z M 3.359375 -1.53125 C 3.359375 -0.609375 2.40625 -0.609375 2.375 -0.609375 C 1.96875 -0.609375 1.703125 -0.96875 1.703125 -1.34375 C 1.703125 -2.3125 3.078125 -2.375 3.359375 -2.390625 Z M 3.359375 -1.53125 "/>
</g>
<g id="glyph-0-6">
<path d="M 3.703125 -0.46875 C 3.703125 -0.5 3.6875 -0.5625 3.625 -0.78125 C 3.578125 -0.96875 3.546875 -1.03125 3.46875 -1.03125 C 3.40625 -1.03125 3.40625 -1.015625 3.34375 -0.96875 C 3.234375 -0.890625 2.96875 -0.671875 2.546875 -0.671875 C 2.3125 -0.671875 2.15625 -0.828125 2.15625 -1.484375 L 2.15625 -3.828125 L 3.046875 -3.828125 C 3.171875 -3.828125 3.515625 -3.828125 3.515625 -4.1875 C 3.515625 -4.546875 3.171875 -4.546875 3.046875 -4.546875 L 2.15625 -4.546875 L 2.15625 -5.375 C 2.15625 -5.6875 2.09375 -5.84375 1.6875 -5.84375 L 1.375 -5.84375 C 1.015625 -5.84375 0.90625 -5.734375 0.90625 -5.375 L 0.90625 -4.546875 L 0.671875 -4.546875 C 0.5625 -4.546875 0.203125 -4.546875 0.203125 -4.1875 C 0.203125 -3.828125 0.5625 -3.828125 0.671875 -3.828125 L 0.875 -3.828125 L 0.875 -1.3125 C 0.875 -0.3125 1.234375 0.109375 1.921875 0.109375 C 2 0.109375 2.4375 0.109375 2.953125 -0.046875 C 3.125 -0.09375 3.703125 -0.28125 3.703125 -0.46875 Z M 3.703125 -0.46875 "/>
</g>
<g id="glyph-0-7">
<path d="M 5.140625 -2.234375 C 5.140625 -3.859375 4.34375 -4.71875 2.734375 -4.71875 C 1.078125 -4.71875 0.3125 -3.828125 0.3125 -2.234375 C 0.3125 -0.609375 1.15625 0.109375 2.71875 0.109375 C 4.28125 0.109375 5.140625 -0.609375 5.140625 -2.234375 Z M 3.796875 -2.34375 C 3.796875 -1.5625 3.796875 -0.671875 2.734375 -0.671875 C 1.65625 -0.671875 1.65625 -1.5625 1.65625 -2.34375 C 1.65625 -3.109375 1.65625 -4 2.71875 -4 C 3.796875 -4 3.796875 -3.125 3.796875 -2.34375 Z M 3.796875 -2.34375 "/>
</g>
<g id="glyph-0-8">
<path d="M 4.953125 -0.46875 L 4.953125 -3.21875 C 4.953125 -4.25 4.53125 -4.65625 3.515625 -4.65625 C 2.46875 -4.65625 2.03125 -3.90625 1.890625 -3.625 L 1.890625 -4.125 C 1.890625 -4.4375 1.8125 -4.609375 1.40625 -4.609375 L 1.078125 -4.609375 C 0.71875 -4.609375 0.59375 -4.5 0.59375 -4.125 L 0.59375 -0.46875 C 0.59375 -0.125 0.703125 0 1.078125 0 L 1.46875 0 C 1.84375 0 1.9375 -0.125 1.9375 -0.46875 L 1.9375 -2.671875 C 1.9375 -3.53125 2.515625 -3.9375 3.03125 -3.9375 C 3.515625 -3.9375 3.609375 -3.703125 3.609375 -3.203125 L 3.609375 -0.46875 C 3.609375 -0.15625 3.6875 0 4.09375 0 L 4.484375 0 C 4.859375 0 4.953125 -0.125 4.953125 -0.46875 Z M 4.953125 -0.46875 "/>
</g>
<g id="glyph-0-9">
<path d="M 5.296875 -4.015625 C 5.296875 -4.0625 5.25 -4.296875 5.234375 -4.390625 C 5.1875 -4.640625 5.1875 -4.65625 5.015625 -4.65625 C 4.703125 -4.65625 4.203125 -4.53125 3.828125 -4.3125 C 3.359375 -4.609375 2.84375 -4.65625 2.421875 -4.65625 C 2 -4.65625 0.421875 -4.65625 0.421875 -3.015625 C 0.421875 -2.625 0.53125 -2.125 0.90625 -1.796875 C 0.640625 -1.421875 0.640625 -1.046875 0.640625 -0.984375 C 0.640625 -0.796875 0.703125 -0.46875 0.90625 -0.203125 C 0.765625 -0.15625 0.25 0.03125 0.25 0.671875 C 0.25 0.96875 0.390625 1.484375 1.015625 1.78125 C 1.59375 2.03125 2.25 2.046875 2.71875 2.046875 C 3.296875 2.046875 5.203125 2.046875 5.203125 0.640625 C 5.203125 -0.90625 3.796875 -0.90625 2.453125 -0.90625 L 1.984375 -0.90625 C 1.625 -0.90625 1.484375 -0.90625 1.34375 -1.03125 C 1.3125 -1.078125 1.140625 -1.21875 1.140625 -1.484375 C 1.140625 -1.546875 1.15625 -1.5625 1.15625 -1.625 C 1.625 -1.375 2.21875 -1.375 2.421875 -1.375 C 2.84375 -1.375 4.421875 -1.375 4.421875 -3 C 4.421875 -3.578125 4.203125 -3.921875 4.109375 -4.03125 C 4.28125 -4.03125 4.625 -4.03125 5.03125 -3.921875 C 5.0625 -3.90625 5.140625 -3.890625 5.171875 -3.890625 C 5.25 -3.890625 5.296875 -3.953125 5.296875 -4.015625 Z M 3.140625 -3.015625 C 3.140625 -2.46875 3.109375 -2.078125 2.421875 -2.078125 C 1.71875 -2.078125 1.703125 -2.453125 1.703125 -3 C 1.703125 -3.546875 1.71875 -3.9375 2.421875 -3.9375 C 3.109375 -3.9375 3.140625 -3.5625 3.140625 -3.015625 Z M 4.171875 0.671875 C 4.171875 1.328125 3.046875 1.328125 2.734375 1.328125 C 2.328125 1.328125 1.265625 1.328125 1.265625 0.640625 C 1.265625 0.171875 1.578125 0.171875 1.8125 0.171875 L 2.953125 0.171875 C 3.765625 0.171875 4.171875 0.3125 4.171875 0.671875 Z M 4.171875 0.671875 "/>
</g>
<g id="glyph-0-10">
<path d="M 4.75 -2.578125 C 4.75 -3.859375 4.15625 -4.71875 2.671875 -4.71875 C 1.09375 -4.71875 0.3125 -3.8125 0.3125 -2.3125 C 0.3125 -0.6875 1.25 0.109375 2.8125 0.109375 C 3.1875 0.109375 3.75 0.0625 4.40625 -0.265625 C 4.625 -0.375 4.6875 -0.40625 4.6875 -0.53125 C 4.6875 -0.59375 4.65625 -0.890625 4.65625 -0.96875 C 4.609375 -1.265625 4.609375 -1.28125 4.515625 -1.28125 C 4.46875 -1.28125 4.453125 -1.28125 4.34375 -1.1875 C 3.765625 -0.671875 3.171875 -0.609375 2.84375 -0.609375 C 1.71875 -0.609375 1.609375 -1.484375 1.578125 -2.125 L 4.28125 -2.125 C 4.5 -2.125 4.75 -2.140625 4.75 -2.578125 Z M 3.65625 -2.65625 L 1.59375 -2.65625 C 1.625 -3.25 1.8125 -4 2.671875 -4 C 3.46875 -4 3.625 -3.421875 3.65625 -2.65625 Z M 3.65625 -2.65625 "/>
</g>
</g>
<clipPath id="clip-0">
<path clip-rule="nonzero" d="M 0.183594 6 L 79.773438 6 L 79.773438 55 L 0.183594 55 Z M 0.183594 6 "/>
</clipPath>
<clipPath id="clip-1">
<path clip-rule="nonzero" d="M 0.183594 71 L 34 71 L 34 102 L 0.183594 102 Z M 0.183594 71 "/>
</clipPath>
<clipPath id="clip-2">
<path clip-rule="nonzero" d="M 0.183594 64 L 32 64 L 32 96 L 0.183594 96 Z M 0.183594 64 "/>
</clipPath>
<clipPath id="clip-3">
<path clip-rule="nonzero" d="M 0.914062 0.0664062 L 14.792969 0.0664062 L 14.792969 13.945312 L 0.914062 13.945312 Z M 0.914062 0.0664062 "/>
</clipPath>
<clipPath id="clip-4">
<rect x="0" y="0" width="15" height="14"/>
</clipPath>
<g id="source-5" clip-path="url(#clip-4)">
<g clip-path="url(#clip-3)">
<path fill-rule="nonzero" fill="rgb(39.99939%, 45.881653%, 49.803162%)" fill-opacity="1" d="M 14.023438 5.851562 L 12.722656 5.851562 C 12.597656 5.320312 12.394531 4.828125 12.117188 4.378906 L 13.035156 3.460938 C 13.332031 3.160156 13.332031 2.671875 13.035156 2.371094 L 12.488281 1.824219 C 12.1875 1.523438 11.699219 1.523438 11.398438 1.824219 L 10.480469 2.742188 C 10.03125 2.464844 9.539062 2.261719 9.007812 2.136719 L 9.007812 0.835938 C 9.007812 0.414062 8.664062 0.0664062 8.238281 0.0664062 L 7.46875 0.0664062 C 7.042969 0.0664062 6.695312 0.414062 6.695312 0.835938 L 6.695312 2.136719 C 6.167969 2.261719 5.675781 2.464844 5.226562 2.742188 L 4.308594 1.824219 C 4.007812 1.527344 3.519531 1.527344 3.21875 1.824219 L 2.671875 2.371094 C 2.371094 2.671875 2.371094 3.160156 2.671875 3.460938 L 3.589844 4.378906 C 3.3125 4.828125 3.105469 5.320312 2.980469 5.851562 L 1.683594 5.851562 C 1.257812 5.851562 0.914062 6.195312 0.914062 6.621094 L 0.914062 7.390625 C 0.914062 7.816406 1.257812 8.164062 1.683594 8.164062 L 2.980469 8.164062 C 3.105469 8.691406 3.3125 9.183594 3.589844 9.632812 L 2.671875 10.550781 C 2.371094 10.851562 2.371094 11.339844 2.675781 11.640625 L 3.21875 12.1875 C 3.519531 12.488281 4.007812 12.488281 4.308594 12.1875 L 5.226562 11.269531 C 5.675781 11.546875 6.167969 11.753906 6.695312 11.878906 L 6.695312 13.175781 C 6.695312 13.601562 7.042969 13.945312 7.46875 13.945312 L 8.238281 13.945312 C 8.664062 13.945312 9.007812 13.601562 9.007812 13.175781 L 9.007812 11.878906 C 9.539062 11.753906 10.03125 11.546875 10.480469 11.269531 L 11.398438 12.1875 C 11.699219 12.488281 12.1875 12.488281 12.488281 12.1875 L 13.035156 11.640625 C 13.332031 11.339844 13.332031 10.851562 13.035156 10.550781 L 12.117188 9.632812 C 12.394531 9.183594 12.597656 8.691406 12.722656 8.164062 L 14.023438 8.164062 C 14.445312 8.164062 14.792969 7.816406 14.792969 7.390625 L 14.792969 6.621094 C 14.792969 6.195312 14.445312 5.851562 14.023438 5.851562 Z M 7.851562 10.089844 C 6.148438 10.089844 4.769531 8.710938 4.769531 7.007812 C 4.769531 5.304688 6.148438 3.921875 7.851562 3.921875 C 9.554688 3.921875 10.9375 5.304688 10.9375 7.007812 C 10.9375 8.710938 9.554688 10.089844 7.851562 10.089844 Z M 7.851562 10.089844 "/>
</g>
</g>
<clipPath id="clip-5">
<path clip-rule="nonzero" d="M 12 4 L 14.585938 4 L 14.585938 8 L 12 8 Z M 12 4 "/>
</clipPath>
<clipPath id="clip-6">
<path clip-rule="nonzero" d="M 0.707031 4 L 3 4 L 3 8 L 0.707031 8 Z M 0.707031 4 "/>
</clipPath>
<clipPath id="clip-7">
<path clip-rule="nonzero" d="M 3 0.0664062 L 12 0.0664062 L 12 4 L 3 4 Z M 3 0.0664062 "/>
</clipPath>
<clipPath id="clip-8">
<path clip-rule="nonzero" d="M 4 0.0664062 L 11 0.0664062 L 11 3 L 4 3 Z M 4 0.0664062 "/>
</clipPath>
<clipPath id="clip-9">
<path clip-rule="nonzero" d="M 2 2 L 14 2 L 14 13.945312 L 2 13.945312 Z M 2 2 "/>
</clipPath>
<clipPath id="clip-10">
<path clip-rule="nonzero" d="M 1 11 L 14.585938 11 L 14.585938 13.945312 L 1 13.945312 Z M 1 11 "/>
</clipPath>
<clipPath id="clip-11">
<rect x="0" y="0" width="15" height="14"/>
</clipPath>
<g id="source-8" clip-path="url(#clip-11)">
<g clip-path="url(#clip-5)">
<path fill-rule="nonzero" fill="rgb(95.684814%, 56.469727%, 4.705811%)" fill-opacity="1" d="M 14.585938 5.65625 C 14.585938 6.402344 14.15625 7.007812 13.621094 7.007812 C 13.089844 7.007812 12.660156 6.402344 12.660156 5.65625 C 12.660156 4.914062 13.089844 4.308594 13.621094 4.308594 C 14.15625 4.308594 14.585938 4.914062 14.585938 5.65625 Z M 14.585938 5.65625 "/>
</g>
<g clip-path="url(#clip-6)">
<path fill-rule="nonzero" fill="rgb(95.684814%, 56.469727%, 4.705811%)" fill-opacity="1" d="M 2.632812 5.65625 C 2.632812 6.402344 2.203125 7.007812 1.671875 7.007812 C 1.136719 7.007812 0.707031 6.402344 0.707031 5.65625 C 0.707031 4.914062 1.136719 4.308594 1.671875 4.308594 C 2.203125 4.308594 2.632812 4.914062 2.632812 5.65625 Z M 2.632812 5.65625 "/>
</g>
<path fill-rule="nonzero" fill="rgb(100%, 67.449951%, 19.999695%)" fill-opacity="1" d="M 13.816406 7.390625 C 13.816406 7.605469 13.640625 7.777344 13.429688 7.777344 L 12.273438 7.777344 C 12.058594 7.777344 11.886719 7.605469 11.886719 7.390625 L 11.886719 3.921875 C 11.886719 3.710938 12.058594 3.535156 12.273438 3.535156 L 13.429688 3.535156 C 13.640625 3.535156 13.816406 3.710938 13.816406 3.921875 Z M 3.40625 7.390625 C 3.40625 7.605469 3.230469 7.777344 3.019531 7.777344 L 1.863281 7.777344 C 1.648438 7.777344 1.476562 7.605469 1.476562 7.390625 L 1.476562 3.921875 C 1.476562 3.710938 1.648438 3.535156 1.863281 3.535156 L 3.019531 3.535156 C 3.230469 3.535156 3.40625 3.710938 3.40625 3.921875 Z M 3.40625 7.390625 "/>
<g clip-path="url(#clip-7)">
<path fill-rule="nonzero" fill="rgb(100%, 79.998779%, 30.195618%)" fill-opacity="1" d="M 11.5 1.996094 C 11.5 3.058594 9.773438 3.535156 7.644531 3.535156 C 5.515625 3.535156 3.789062 3.058594 3.789062 1.996094 C 3.789062 0.929688 5.515625 0.0664062 7.644531 0.0664062 C 9.773438 0.0664062 11.5 0.929688 11.5 1.996094 Z M 11.5 1.996094 "/>
</g>
<g clip-path="url(#clip-8)">
<path fill-rule="nonzero" fill="rgb(95.684814%, 56.469727%, 4.705811%)" fill-opacity="1" d="M 10.34375 1.640625 C 10.34375 2.261719 9.136719 2.765625 7.644531 2.765625 C 6.15625 2.765625 4.945312 2.261719 4.945312 1.640625 C 4.945312 1.019531 6.15625 0.515625 7.644531 0.515625 C 9.136719 0.515625 10.34375 1.019531 10.34375 1.640625 Z M 10.34375 1.640625 "/>
</g>
<path fill-rule="nonzero" fill="rgb(13.33313%, 39.99939%, 59.999084%)" fill-opacity="1" d="M 12.273438 2.1875 C 12.273438 2.71875 11.839844 2.765625 11.308594 2.765625 L 3.984375 2.765625 C 3.453125 2.765625 3.019531 2.71875 3.019531 2.1875 C 3.019531 1.65625 3.453125 1.222656 3.984375 1.222656 L 11.308594 1.222656 C 11.839844 1.222656 12.273438 1.65625 12.273438 2.1875 Z M 12.273438 2.1875 "/>
<g clip-path="url(#clip-9)">
<path fill-rule="nonzero" fill="rgb(33.332825%, 67.449951%, 93.331909%)" fill-opacity="1" d="M 12.273438 2.378906 L 3.019531 2.378906 C 2.59375 2.378906 2.25 2.726562 2.25 3.152344 L 2.25 13.175781 L 13.042969 13.175781 L 13.042969 3.152344 C 13.042969 2.726562 12.699219 2.378906 12.273438 2.378906 Z M 12.273438 2.378906 "/>
</g>
<g clip-path="url(#clip-10)">
<path fill-rule="nonzero" fill="rgb(23.136902%, 53.33252%, 76.469421%)" fill-opacity="1" d="M 14.199219 12.789062 L 14.199219 12.40625 C 14.199219 11.980469 13.855469 11.632812 13.429688 11.632812 L 9.214844 11.632812 L 7.917969 12.929688 C 7.769531 13.082031 7.523438 13.082031 7.375 12.929688 L 6.074219 11.632812 L 1.863281 11.632812 C 1.4375 11.632812 1.089844 11.980469 1.089844 12.40625 L 1.089844 12.789062 C 1.089844 13.214844 1.050781 13.5625 1.476562 13.5625 L 13.816406 13.5625 C 14.242188 13.5625 14.199219 13.214844 14.199219 12.789062 Z M 14.199219 12.789062 "/>
</g>
<path fill-rule="nonzero" fill="rgb(100%, 100%, 100%)" fill-opacity="1" d="M 11.886719 5.65625 C 11.886719 6.613281 11.109375 7.390625 10.152344 7.390625 C 9.195312 7.390625 8.417969 6.613281 8.417969 5.65625 C 8.417969 4.699219 9.195312 3.921875 10.152344 3.921875 C 11.109375 3.921875 11.886719 4.699219 11.886719 5.65625 Z M 11.886719 5.65625 "/>
<path fill-rule="nonzero" fill="rgb(86.665344%, 18.03894%, 26.66626%)" fill-opacity="1" d="M 11.199219 5.65625 C 11.199219 6.238281 10.734375 6.707031 10.152344 6.707031 C 9.570312 6.707031 9.105469 6.238281 9.105469 5.65625 C 9.105469 5.078125 9.570312 4.609375 10.152344 4.609375 C 10.734375 4.609375 11.199219 5.078125 11.199219 5.65625 Z M 11.199219 5.65625 "/>
<path fill-rule="nonzero" fill="rgb(100%, 100%, 100%)" fill-opacity="1" d="M 6.875 5.65625 C 6.875 6.613281 6.097656 7.390625 5.140625 7.390625 C 4.183594 7.390625 3.40625 6.613281 3.40625 5.65625 C 3.40625 4.699219 4.183594 3.921875 5.140625 3.921875 C 6.097656 3.921875 6.875 4.699219 6.875 5.65625 Z M 6.875 5.65625 "/>
<path fill-rule="nonzero" fill="rgb(96.076965%, 97.253418%, 98.03772%)" fill-opacity="1" d="M 11.886719 9.898438 C 11.886719 10.429688 11.457031 10.863281 10.921875 10.863281 L 4.367188 10.863281 C 3.835938 10.863281 3.40625 10.429688 3.40625 9.898438 C 3.40625 9.367188 3.835938 8.933594 4.367188 8.933594 L 10.921875 8.933594 C 11.457031 8.933594 11.886719 9.367188 11.886719 9.898438 Z M 11.886719 9.898438 "/>
<path fill-rule="nonzero" fill="rgb(79.998779%, 83.920288%, 86.665344%)" fill-opacity="1" d="M 7.261719 8.933594 L 8.03125 8.933594 L 8.03125 10.863281 L 7.261719 10.863281 Z M 5.332031 8.933594 L 6.105469 8.933594 L 6.105469 10.863281 L 5.332031 10.863281 Z M 9.1875 8.933594 L 9.960938 8.933594 L 9.960938 10.863281 L 9.1875 10.863281 Z M 3.40625 9.898438 C 3.40625 10.363281 3.738281 10.753906 4.175781 10.84375 L 4.175781 8.953125 C 3.738281 9.042969 3.40625 9.433594 3.40625 9.898438 Z M 11.117188 8.953125 L 11.117188 10.84375 C 11.554688 10.753906 11.886719 10.363281 11.886719 9.898438 C 11.886719 9.429688 11.554688 9.042969 11.117188 8.953125 Z M 11.117188 8.953125 "/>
<path fill-rule="nonzero" fill="rgb(86.665344%, 18.03894%, 26.66626%)" fill-opacity="1" d="M 6.1875 5.65625 C 6.1875 6.238281 5.71875 6.707031 5.140625 6.707031 C 4.558594 6.707031 4.09375 6.238281 4.09375 5.65625 C 4.09375 5.078125 4.558594 4.609375 5.140625 4.609375 C 5.71875 4.609375 6.1875 5.078125 6.1875 5.65625 Z M 6.1875 5.65625 "/>
</g>
<clipPath id="clip-12">
<path clip-rule="nonzero" d="M 0.183594 57 L 79.773438 57 L 79.773438 109 L 0.183594 109 Z M 0.183594 57 "/>
</clipPath>
</defs>
<path fill-rule="nonzero" fill="rgb(81.568909%, 52.938843%, 43.920898%)" fill-opacity="1" stroke-width="0.79701" stroke-linecap="butt" stroke-linejoin="miter" stroke="rgb(0%, 0%, 0%)" stroke-opacity="1" stroke-miterlimit="10" d="M -14.172097 0.000190254 C -14.172097 3.132638 -16.711814 5.66843 -19.844262 5.66843 C -22.972785 5.66843 -25.512502 3.132638 -25.512502 0.000190254 C -25.512502 -3.132258 -22.972785 -5.668049 -19.844262 -5.668049 C -16.711814 -5.668049 -14.172097 -3.132258 -14.172097 0.000190254 Z M -14.172097 0.000190254 " transform="matrix(0.995128, 0, 0, -0.995128, 39.978054, 30.683783)"/>
<path fill-rule="nonzero" fill="rgb(81.568909%, 52.938843%, 43.920898%)" fill-opacity="1" stroke-width="0.79701" stroke-linecap="butt" stroke-linejoin="miter" stroke="rgb(0%, 0%, 0%)" stroke-opacity="1" stroke-miterlimit="10" d="M -0.849379 0.000190254 C -0.849379 3.132638 -3.389096 5.66843 -6.521544 5.66843 C -9.650067 5.66843 -12.189783 3.132638 -12.189783 0.000190254 C -12.189783 -3.132258 -9.650067 -5.668049 -6.521544 -5.668049 C -3.389096 -5.668049 -0.849379 -3.132258 -0.849379 0.000190254 Z M -0.849379 0.000190254 " transform="matrix(0.995128, 0, 0, -0.995128, 39.978054, 30.683783)"/>
<path fill-rule="nonzero" fill="rgb(81.568909%, 52.938843%, 43.920898%)" fill-opacity="1" stroke-width="0.79701" stroke-linecap="butt" stroke-linejoin="miter" stroke="rgb(0%, 0%, 0%)" stroke-opacity="1" stroke-miterlimit="10" d="M 12.190712 0.000190254 C 12.190712 3.132638 9.650995 5.66843 6.518547 5.66843 C 3.390024 5.66843 0.850308 3.132638 0.850308 0.000190254 C 0.850308 -3.132258 3.390024 -5.668049 6.518547 -5.668049 C 9.650995 -5.668049 12.190712 -3.132258 12.190712 0.000190254 Z M 12.190712 0.000190254 " transform="matrix(0.995128, 0, 0, -0.995128, 39.978054, 30.683783)"/>
<path fill-rule="nonzero" fill="rgb(81.568909%, 52.938843%, 43.920898%)" fill-opacity="1" stroke-width="0.79701" stroke-linecap="butt" stroke-linejoin="miter" stroke="rgb(0%, 0%, 0%)" stroke-opacity="1" stroke-miterlimit="10" d="M 25.51343 0.000190254 C 25.51343 3.132638 22.973713 5.66843 19.841265 5.66843 C 16.712742 5.66843 14.173026 3.132638 14.173026 0.000190254 C 14.173026 -3.132258 16.712742 -5.668049 19.841265 -5.668049 C 22.973713 -5.668049 25.51343 -3.132258 25.51343 0.000190254 Z M 25.51343 0.000190254 " transform="matrix(0.995128, 0, 0, -0.995128, 39.978054, 30.683783)"/>
<g clip-path="url(#clip-0)">
<path fill="none" stroke-width="0.79701" stroke-linecap="butt" stroke-linejoin="miter" stroke="rgb(0%, 0%, 0%)" stroke-opacity="1" stroke-miterlimit="10" d="M 33.8627 12.757655 L -33.861771 12.757655 C -35.514353 12.757655 -36.848981 11.419102 -36.848981 9.76652 L -36.848981 -9.766139 C -36.848981 -11.418722 -35.514353 -12.757274 -33.861771 -12.757274 L 33.8627 -12.757274 C 35.511357 -12.757274 36.849909 -11.418722 36.849909 -9.766139 L 36.849909 9.76652 C 36.849909 11.419102 35.511357 12.757655 33.8627 12.757655 Z M 33.8627 12.757655 " transform="matrix(0.995128, 0, 0, -0.995128, 39.978054, 30.683783)"/>
</g>
<g fill="rgb(0%, 0%, 0%)" fill-opacity="1">
<use xlink:href="#glyph-0-0" x="14.439083" y="12.168428"/>
<use xlink:href="#glyph-0-1" x="21.706122" y="12.168428"/>
<use xlink:href="#glyph-0-1" x="27.267934" y="12.168428"/>
<use xlink:href="#glyph-0-2" x="32.829746" y="12.168428"/>
<use xlink:href="#glyph-0-3" x="35.367757" y="12.168428"/>
<use xlink:href="#glyph-0-4" x="37.905768" y="12.168428"/>
<use xlink:href="#glyph-0-5" x="42.753765" y="12.168428"/>
<use xlink:href="#glyph-0-6" x="47.958669" y="12.168428"/>
<use xlink:href="#glyph-0-3" x="51.963967" y="12.168428"/>
<use xlink:href="#glyph-0-7" x="54.501978" y="12.168428"/>
<use xlink:href="#glyph-0-8" x="59.954735" y="12.168428"/>
</g>
<path fill-rule="nonzero" fill="rgb(59.919739%, 30.429077%, 33.253479%)" fill-opacity="1" d="M 9.765625 90.550781 L 9.765625 86.882812 C 9.765625 84.132812 12.515625 82.300781 16.183594 82.300781 C 19.851562 82.300781 22.601562 84.132812 22.601562 86.882812 L 22.601562 90.550781 Z M 9.765625 90.550781 "/>
<g clip-path="url(#clip-1)">
<path fill="none" stroke-width="0.79701" stroke-linecap="butt" stroke-linejoin="miter" stroke="rgb(0%, 0%, 0%)" stroke-opacity="1" stroke-miterlimit="10" d="M -6.450338 -3.685086 L -6.450338 0.000840054 C -6.450338 2.764303 -3.686875 4.605303 -0.000949079 4.605303 C 3.684977 4.605303 6.44844 2.764303 6.44844 0.000840054 L 6.44844 -3.685086 L -6.450338 -3.685086 " transform="matrix(0.995128, 0, 0, -0.995128, 16.184538, 86.883648)"/>
</g>
<path fill-rule="nonzero" fill="rgb(96.076965%, 81.568909%, 77.253723%)" fill-opacity="1" d="M 20.21875 79.917969 C 20.21875 77.6875 18.414062 75.882812 16.183594 75.882812 C 13.957031 75.882812 12.152344 77.6875 12.152344 79.917969 C 12.152344 82.144531 13.957031 83.949219 16.183594 83.949219 C 18.414062 83.949219 20.21875 82.144531 20.21875 79.917969 Z M 20.21875 79.917969 "/>
<g clip-path="url(#clip-2)">
<path fill="none" stroke-width="0.79701" stroke-linecap="butt" stroke-linejoin="miter" stroke="rgb(0%, 0%, 0%)" stroke-opacity="1" stroke-miterlimit="10" d="M 4.053962 6.999781 C 4.053962 9.24117 2.240439 11.054692 -0.000949079 11.054692 C -2.238412 11.054692 -4.051935 9.24117 -4.051935 6.999781 C -4.051935 4.762318 -2.238412 2.948796 -0.000949079 2.948796 C 2.240439 2.948796 4.053962 4.762318 4.053962 6.999781 Z M 4.053962 6.999781 " transform="matrix(0.995128, 0, 0, -0.995128, 16.184538, 86.883648)"/>
</g>
<use xlink:href="#source-5" transform="matrix(1, 0, 0, 1, 32, 77)"/>
<use xlink:href="#source-8" transform="matrix(1, 0, 0, 1, 56, 77)"/>
<g clip-path="url(#clip-12)">
<path fill="none" stroke-width="0.79701" stroke-linecap="butt" stroke-linejoin="miter" stroke="rgb(0%, 0%, 0%)" stroke-opacity="1" stroke-miterlimit="10" d="M 34.608521 -38.181919 L -34.611518 -38.181919 C -36.260174 -38.181919 -37.598727 -39.520471 -37.598727 -41.169128 L -37.598727 -64.411265 C -37.598727 -66.059922 -36.260174 -67.398475 -34.611518 -67.398475 L 34.608521 -67.398475 C 36.261103 -67.398475 37.599655 -66.059922 37.599655 -64.411265 L 37.599655 -41.169128 C 37.599655 -39.520471 36.261103 -38.181919 34.608521 -38.181919 Z M 34.608521 -38.181919 " transform="matrix(0.995128, 0, 0, -0.995128, 39.978054, 30.683783)"/>
</g>
<g fill="rgb(0%, 0%, 0%)" fill-opacity="1">
<use xlink:href="#glyph-0-0" x="26.302007" y="108.533658"/>
<use xlink:href="#glyph-0-9" x="33.569045" y="108.533658"/>
<use xlink:href="#glyph-0-10" x="39.021802" y="108.533658"/>
<use xlink:href="#glyph-0-8" x="44.087909" y="108.533658"/>
<use xlink:href="#glyph-0-6" x="49.649722" y="108.533658"/>
</g>
<path fill="none" stroke-width="0.79701" stroke-linecap="butt" stroke-linejoin="miter" stroke="rgb(59.919739%, 30.429077%, 33.253479%)" stroke-opacity="1" stroke-miterlimit="10" d="M -14.172097 -37.781531 L -14.172097 -16.863215 " transform="matrix(0.995128, 0, 0, -0.995128, 39.978054, 30.683783)"/>
<path fill-rule="nonzero" fill="rgb(59.919739%, 30.429077%, 33.253479%)" fill-opacity="1" stroke-width="0.79701" stroke-linecap="butt" stroke-linejoin="miter" stroke="rgb(59.919739%, 30.429077%, 33.253479%)" stroke-opacity="1" stroke-miterlimit="10" d="M 4.84397 -0.00129286 L 1.287582 1.34511 L 2.469119 -0.00129286 L 1.287582 -1.347696 Z M 4.84397 -0.00129286 " transform="matrix(0, -0.995128, -0.995128, 0, 25.873713, 49.722715)"/>
<path fill="none" stroke-width="1.49442" stroke-linecap="butt" stroke-linejoin="miter" stroke="rgb(35.409546%, 44.195557%, 52.978516%)" stroke-opacity="1" stroke-miterlimit="10" d="M 14.173026 -13.153737 L 14.173026 -34.162336 " transform="matrix(0.995128, 0, 0, -0.995128, 39.978054, 30.683783)"/>
<path fill-rule="nonzero" fill="rgb(35.409546%, 44.195557%, 52.978516%)" fill-opacity="1" stroke-width="1.00871" stroke-linecap="butt" stroke-linejoin="miter" stroke="rgb(35.409546%, 44.195557%, 52.978516%)" stroke-opacity="1" stroke-miterlimit="10" d="M 4.540294 -0.000364266 L 1.627667 1.110516 L 2.60901 -0.000364266 L 1.627667 -1.10732 Z M 4.540294 -0.000364266 " transform="matrix(0, 0.995128, 0.995128, 0, 54.082394, 62.333388)"/>
</svg>
